#!OML:ASF F:\VICON\USERDATA\INSTALL\rory3\rory3.ASF
:FULLY-SPECIFIED
:DEGREES
19
root 0.422806713877389 18.261139074397814 -12.827935376009401 3.8142805937779523 4.903299171480816 -2.8206843207841534
lfemur -41.11889070371029 -5.700646559118993 -19.232233003688222
ltibia 49.47005839620311
lfoot -1.5794933183926791 -6.607467427766635
ltoes -16.730543525440513
rfemur 13.658736171539001 2.5302643208535325 31.77289017157812
rtibia 33.15061852997951
rfoot 12.226313041354475 -6.126473209010477
rtoes -10.634491756597143
lowerback 11.22326960357901 2.457034298437145 5.493980281562179
upperback -0.9865862134824439 4.097854150100474 1.5436042834568298
thorax -7.450353995245091 1.8233374436429641 -2.2239371920052986
lowerneck -16.314013069157063 -5.709759464072304 -2.322736450688579
upperneck 15.516536922725658 -7.72997095536164 2.224340324618918
head 7.681948302578187 -3.6098788559076427 0.3775289880999476
lclavicle 3.072423395601639e-16 -4.3067565378832717e-16
lhumerus -66.11584755774216 -8.425992787258316 98.73108582502435
lradius 106.9557431442215
lwrist 31.16226761257832
lhand -26.39246104166368 3.0427316485584317
lfingers 7.125020000000001
lthumb 0.1665652078151988 33.008561802707334
rclavicle 3.072423395601639e-16 -4.3067565378832717e-16
rhumerus -36.21362385810232 10.537068467066888 -95.41700021111768
rradius 108.33963216286885
rwrist -19.97840072898885
rhand -17.883300864770927 41.9945198350575
rfingers 7.125020000000001
rthumb 8.38311109402112 12.186481574445551
20
root 0.44618680229304597 18.415229545225046 -11.781578042132258 3.6300675041821813 5.299117380091601 -2.4767798304959063
lfemur -38.41285588916677 -6.552118032773715 -19.68411062832488
ltibia 40.621645310837316
lfoot -2.081623873698672 -7.894238838380371
ltoes -21.047114243902158
rfemur 16.196949830184654 2.9940729002230757 31.619651666363584
rtibia 33.02756725170707
rfoot 17.864149768616116 -5.643450153052221
rtoes -3.4222642131925047
lowerback 11.1707148605348 2.551489189501677 5.842248906649773
upperback -1.2569995208363476 4.2467853731992 1.1828356874591204
thorax -7.6643154230426465 1.8443858319364599 -2.9798358723464973
lowerneck -16.187188213964596 -5.743833481628386 -2.235612638394915
upperneck 15.961613798144702 -7.835795269530073 2.261199784911701
head 7.800488110545398 -3.6412562857917687 0.36544725929143795
lclavicle 3.0724223502898594e-16 -4.3067562270245127e-16
lhumerus -68.19343091208535 -7.228402944457943 97.68567122673333
lradius 107.32538988567295
lwrist 31.401781380713523
lhand -27.159619074413946 3.827010363410138
lfingers 7.125020000000001
lthumb -0.5741468903144564 33.755667323333704
rclavicle 3.0724223502898594e-16 -4.3067562270245127e-16
rhumerus -38.866785332267405 10.994708900589428 -95.80804569881658
rradius 108.87418779809208
rwrist -20.505053990337117
rhand -16.518271156118697 46.91073699271733
rfingers 7.125020000000001
rthumb 9.700045822217469 17.170871751330367
21
root 0.1420925467464631 18.19123629470668 -2.3073603873245183 3.367245558004298 1.7894450857074116 -2.7979730980692414
lfemur -33.17537676932515 -2.4906312134462634 -19.071857587762437
ltibia 33.394616660826756
lfoot 0.9259237011721613 -10.79394437951639
ltoes -19.53937437966168
rfemur 14.970909396435449 4.358471259340875 32.51656507262928
rtibia 34.36321287718749
rfoot 23.243116906548845 -3.8627194305312456
rtoes 1.992227074437738
lowerback 11.243972678061459 2.394634937407424 6.394993525350603
upperback -1.1084864387062414 3.893691892607304 1.3184474379205067
thorax -8.37379884253935 1.7573906167175364 -2.7326042777059842
lowerneck -16.86606348726284 -5.43926931810256 -2.473730443832382
upperneck 14.775355411601183 -7.452755430097181 2.80155176630621
head 7.558733162801664 -3.451597026167817 0.5135307075308724
lclavicle 3.072452584343559e-16 -4.3067393261332474e-16
lhumerus -67.15415213237554 -8.381758330694996 97.49255765989672
lradius 110.21325453612496
lwrist 31.230424050426308
lhand -27.30783102279967 3.777765943119149
lfingers 7.125020000000001
lthumb -0.6587700304328303 33.95380763382646
rclavicle 3.07237914902055e-16 -4.3067812438924857e-16
rhumerus -34.302935238928185 12.925416828099495 -94.62992682600552
rradius 108.37632713425859
rwrist -20.36952932173519
rhand -19.0360116912715 38.235624490887076
rfingers 7.125020000000001
rthumb 7.188014769506977 8.250459594406252
22
root 0.12011631259148128 18.147419537992306 -2.4193346082060003 3.473306723964461 1.6149320942622385 -2.7535187045612624
lfemur -34.95663737337887 -2.1145037831027915 -19.107815686768106
ltibia 27.859234836951806
lfoot 4.727065694582792 -13.177188855866094
ltoes -16.547439581985774
rfemur 14.305051885311208 5.19689352827058 33.52400769434716
rtibia 37.56749928410182
rfoot 20.53336655800578 -4.469307059967138
rtoes 3.9772050412247526
lowerback 11.334658099390609 2.3524801576779146 6.628845920427807
upperback -1.1079697974029066 4.219140089857543 1.4437817453420116
thorax -8.313667280922953 1.791666065725775 -3.0008817553097082
lowerneck -17.17739231897103 -5.269249004368415 -2.3774016675670095
upperneck 14.197414648322228 -7.466004604982766 2.9294390044479695
head 7.363639331059472 -3.4532364894259784 0.5867152994220631
lclavicle 3.0724525843497355e-16 -4.306739326129721e-16
lhumerus -66.14068763672688 -9.476866485917391 97.80804097313379
lradius 111.12689502332168
lwrist 30.923250273103953
lhand -27.15596541339176 3.7911480209193162
lfingers 7.125020000000001
lthumb -0.7910980344730674 33.69702707994061
rclavicle 3.0723791497371503e-16 -4.306781243483442e-16
rhumerus -35.59889780533679 12.924968171385611 -95.00951723585432
rradius 108.17900577008666
rwrist -20.308372771914033
rhand -19.3903199487563 37.15600764531136
rfingers 7.125020000000001
rthumb 7.112221799800214 8.145823736840907
